<?xml version="1.0" standalone="no"?>
<!DOCTYPE svg PUBLIC "-//W3C//DTD SVG 20010904//EN"
 "http://www.w3.org/TR/2001/REC-SVG-20010904/DTD/svg10.dtd">
<svg version="1.0" xmlns="http://www.w3.org/2000/svg"
 width="700.000000pt" height="700.000000pt" viewBox="0 0 700.000000 700.000000"
 preserveAspectRatio="xMidYMid meet">
<metadata>
Created by potrace 1.14, written by Peter Selinger 2001-2017
</metadata>
<g transform="translate(0.000000,700.000000) scale(0.100000,-0.100000)"
fill="#000000" stroke="none">
<path d="M3080 5140 l0 -1022 -177 176 -177 177 -98 -99 -97 -99 176 -177 176
-176 -1023 0 -1022 0 5 -227 c3 -126 8 -237 10 -249 3 -12 8 -45 12 -75 4 -30
9 -57 11 -61 2 -3 9 -30 14 -60 12 -65 60 -219 71 -232 5 -6 9 -16 9 -23 0
-19 67 -158 108 -223 77 -123 179 -240 270 -307 20 -15 39 -30 42 -33 8 -9 62
-39 131 -75 71 -36 200 -81 264 -91 22 -3 44 -8 49 -12 21 -12 324 -9 401 4
362 65 637 277 808 623 l37 74 0 -1057 0 -1056 280 0 280 0 0 1260 0 1260
1260 0 1260 0 0 280 0 280 -1055 0 -1055 0 95 49 c328 171 528 431 596 776 18
91 18 358 0 449 -54 271 -185 485 -401 652 -94 73 -229 148 -345 191 -22 8
-49 18 -60 23 -47 19 -231 63 -315 76 -25 3 -54 8 -65 11 -11 3 -122 7 -247
10 l-228 5 0 -1022z m653 395 c146 -47 249 -107 330 -191 98 -100 145 -249
133 -419 -15 -227 -119 -372 -340 -474 -60 -28 -186 -71 -207 -71 -5 0 -9 250
-9 590 0 329 4 590 9 590 5 0 43 -11 84 -25z m-653 -1565 l0 -50 -52 0 c-28 0
-49 2 -47 5 48 55 86 94 92 95 4 0 7 -22 7 -50z m-460 -621 c0 -26 -64 -199
-92 -249 -109 -196 -245 -284 -456 -296 -220 -13 -379 61 -499 231 -47 66
-104 200 -127 298 l-6 27 590 0 c423 0 590 -3 590 -11z"/>
<path d="M1434 5554 l-91 -93 172 -173 c95 -95 185 -184 199 -198 l27 -24 94
94 c52 52 95 97 95 101 0 12 -383 389 -394 388 -6 -1 -52 -44 -102 -95z"/>
<path d="M2032 4964 c-93 -94 -94 -96 -75 -116 14 -16 376 -378 378 -378 0 0
44 44 97 98 l98 99 -197 196 c-108 109 -199 197 -202 197 -3 0 -48 -44 -99
-96z"/>
<path d="M3817 3182 l-98 -98 135 -136 136 -135 0 -952 0 -951 1050 0 1050 0
0 1050 0 1050 -952 0 -951 0 -135 135 c-74 74 -135 135 -136 135 -1 0 -45 -44
-99 -98z m1853 -1222 l0 -630 -630 0 -630 0 0 630 0 630 630 0 630 0 0 -630z"/>
</g>
</svg>
