<?xml version="1.0" standalone="no"?>
<!DOCTYPE svg PUBLIC "-//W3C//DTD SVG 20010904//EN"
 "http://www.w3.org/TR/2001/REC-SVG-20010904/DTD/svg10.dtd">
<svg version="1.0" xmlns="http://www.w3.org/2000/svg"
 width="481.000000pt" height="481.000000pt" viewBox="0 0 481.000000 481.000000"
 preserveAspectRatio="xMidYMid meet">
<metadata>
Created by potrace 1.14, written by Peter Selinger 2001-2017
</metadata>
<g transform="translate(0.000000,481.000000) scale(0.100000,-0.100000)"
fill="#000000" stroke="none">
<path d="M1340 4210 l0 -150 -150 0 -150 0 0 -150 0 -150 -75 0 -75 0 0 -75 0
-75 75 0 75 0 0 -75 0 -75 -75 0 -75 0 0 -75 0 -75 -445 0 -445 0 0 -675 0
-675 70 0 70 0 0 -75 0 -75 75 0 75 0 0 -75 0 -75 225 0 225 0 0 -75 0 -75
150 0 150 0 0 -75 0 -75 75 0 75 0 0 75 0 75 150 0 150 0 0 -75 0 -75 75 0 75
0 0 75 0 75 75 0 75 0 0 -75 0 -75 225 0 225 0 0 -75 0 -75 150 0 150 0 0 -75
0 -75 225 0 225 0 0 -75 0 -75 75 0 75 0 0 -75 0 -75 75 0 75 0 0 -75 0 -75
150 0 150 0 0 -75 0 -75 75 0 75 0 0 -75 0 -75 75 0 75 0 0 -75 0 -75 150 0
150 0 0 -75 0 -75 225 0 225 0 0 75 0 75 -75 0 -75 0 0 150 0 150 -75 0 -75 0
0 75 0 75 -75 0 -75 0 0 75 0 75 -75 0 -75 0 0 -75 0 -75 -150 0 -150 0 0 75
0 75 -150 0 -150 0 0 75 0 75 150 0 150 0 0 75 0 75 75 0 75 0 0 75 0 75 -150
0 -150 0 0 -75 0 -75 -75 0 -75 0 0 -75 0 -75 -75 0 -75 0 0 75 0 75 -75 0
-75 0 0 75 0 75 -150 0 -150 0 0 75 0 75 75 0 75 0 0 75 0 75 75 0 75 0 0 75
0 75 75 0 75 0 0 75 0 75 75 0 75 0 0 -75 0 -75 75 0 75 0 0 150 0 150 75 0
75 0 0 75 0 75 -75 0 -75 0 0 -75 0 -75 -75 0 -75 0 0 75 0 75 -75 0 -75 0 0
150 0 150 -75 0 -75 0 0 225 0 225 75 0 75 0 0 75 0 75 -75 0 -75 0 0 300 0
300 -75 0 -75 0 0 150 0 150 -75 0 -75 0 0 75 0 75 75 0 75 0 0 75 0 75 -75 0
-75 0 0 -75 0 -75 -75 0 -75 0 0 75 0 75 -150 0 -150 0 0 75 0 75 -525 0 -525
0 0 -150z m900 -675 l0 -75 75 0 75 0 0 -75 0 -75 75 0 75 0 0 -75 0 -75 -75
0 -75 0 0 -75 0 -75 -150 0 -150 0 0 75 0 75 -150 0 -150 0 0 150 0 150 150 0
150 0 0 75 0 75 75 0 75 0 0 -75z m-1050 -1050 l0 -225 75 0 75 0 0 -75 0 -75
-375 0 -375 0 0 300 0 300 300 0 300 0 0 -225z m1050 -150 l0 -75 75 0 75 0 0
-75 0 -75 -75 0 -75 0 0 75 0 75 -75 0 -75 0 0 75 0 75 75 0 75 0 0 -75z
m1950 -1800 l0 -75 -75 0 -75 0 0 75 0 75 75 0 75 0 0 -75z"/>
<path d="M2240 535 l0 -75 75 0 75 0 0 75 0 75 -75 0 -75 0 0 -75z"/>
</g>
</svg>
